<svg width="245" height="61" viewBox="0 0 245 61" fill="none" xmlns="http://www.w3.org/2000/svg">
<path d="M82.648 45.8314C83.5854 45.4194 84.6104 45.2134 85.7022 45.2134C86.3523 45.2134 87.014 45.2784 87.6867 45.4086C88.3594 45.5387 88.9985 45.723 89.594 45.9399C90.1895 46.1676 90.6968 46.4278 91.0938 46.7422L89.5388 49.1926H89.186L87.4772 46.8289C86.9258 46.5904 86.2751 46.4603 85.5147 46.4603C84.4781 46.4603 83.5633 46.7314 82.7693 47.2843C81.9753 47.8265 81.3577 48.5855 80.9061 49.5613C80.4539 50.5263 80.2334 51.6539 80.2334 52.9116C80.2334 54.1693 80.465 55.416 80.9392 56.4353C81.4018 57.4656 82.0525 58.2678 82.8796 58.8424C83.7061 59.4171 84.6656 59.6992 85.7463 59.6992C86.7493 59.6992 87.6426 59.4931 88.4035 59.07C89.1639 58.6474 89.8807 57.9857 90.5534 57.086L91.3248 57.5196C90.7078 58.6254 89.9028 59.4821 88.9213 60.0893C87.9403 60.6964 86.8596 61 85.6581 61C84.07 61 82.7031 60.686 81.5341 60.0678C80.3768 59.4496 79.4725 58.5714 78.8439 57.4221C78.2158 56.2838 77.896 54.9283 77.896 53.367C77.896 52.2285 78.0945 51.166 78.4915 50.1793C78.888 49.1926 79.4504 48.3252 80.1562 47.5771C80.862 46.8289 81.6885 46.2543 82.637 45.8423M98.1391 40.3126L96.6062 42.1233V42.1667L101.38 44.487L101.667 44.1833L98.1832 40.3126H98.1391ZM97.0914 54.8632H102.56L99.5832 47.8698L97.0914 54.8632ZM100.807 45.5495L106.54 58.9835L107.985 60.2738V60.6204H102.185V60.2738L104.313 58.9835L103.023 55.9477H96.7054L95.6252 58.9725L97.7421 60.2738V60.6204H92.3174V60.2738L93.7835 58.9835L98.8553 47.1L97.5656 45.8965V45.5495H100.807ZM131.998 45.5495H130.201L125.747 57.7692L120.499 45.5495H116.496V45.8965L118.184 47.1867L117.048 58.9835L115.295 60.2738V60.6204H120.356V60.2738L118.602 58.9835L119.209 47.7506L124.755 60.6204H125.538L131.061 47.7397L132.043 58.9835L130.29 60.2738V60.6204H135.847V60.2738L134.093 58.9835L133.068 47.1867L134.821 45.8965V45.5495H131.998ZM141.767 54.8632H147.236L144.259 47.8698L141.767 54.8632ZM145.483 45.5495L151.216 58.9835L152.661 60.2738V60.6204H146.861V60.2738L148.989 58.9835L147.699 55.9477H141.381L140.301 58.9725L142.418 60.2738V60.6204H136.993V60.2738L138.46 58.9835L143.531 47.1L142.241 45.8965V45.5495H145.483ZM162.694 45.5495V45.8965L164.667 47.2735V54.3103C164.667 56.1642 164.337 57.5091 163.686 58.3548C163.036 59.2 161.999 59.6231 160.577 59.6231C159.154 59.6231 158.118 59.2 157.468 58.3548C156.817 57.5091 156.486 56.1642 156.486 54.3103V47.1867L158.24 45.8965V45.5495H152.594V45.8965L154.347 47.1867V54.8958C154.347 56.9235 154.866 58.4413 155.891 59.4496C156.916 60.4579 158.46 60.9675 160.522 60.9675C161.745 60.9675 162.793 60.7074 163.653 60.1978C164.513 59.6771 165.164 58.9295 165.605 57.9317C166.045 56.9449 166.266 55.7306 166.266 54.2994V47.2627L168.019 45.8856V45.5387H162.661L162.694 45.5495ZM220.159 0.477066H216.432L208.516 24.9378L200.6 0.477066H193.598V30.5977H197.325V4.80325L205.672 30.5977H210.413L217.822 7.69822V30.5977H222.486V0.487911H220.148L220.159 0.477066ZM233.456 0.477066H228.792V30.5868H233.456H245V28.028H233.456V16.806H244.096V14.2471H233.456V3.02507H245V0.46623H233.456V0.477066ZM164.171 15.5374C164.171 22.8127 168.581 28.7219 174.039 28.7219C179.497 28.7219 183.896 22.8235 183.896 15.5374C183.896 8.25116 179.486 2.35283 174.039 2.35283C168.592 2.35283 164.171 8.25116 164.171 15.5374ZM159.199 15.5374C159.199 6.96093 165.847 0 174.039 0C182.231 0 188.879 6.95007 188.879 15.5374C188.879 24.1246 182.231 31.0747 174.039 31.0747C165.847 31.0747 159.199 24.1138 159.199 15.5374ZM149.816 0.477066V14.0086H138.713V0.477066H134.049V30.5977H138.713V17.077H149.816V30.5977H154.491V0.477066H149.816ZM32.1286 18.9636H41.0373L36.5829 3.78404L32.1286 18.9636ZM40.2765 0.477066L49.108 30.5977H44.4442L41.9304 22.0212H31.2355L28.7217 30.5977H25.1604L33.9919 0.477066H40.2876H40.2765ZM15.7666 0.477066V14.0086H4.66383V0.477066H0V30.5868H4.66383V17.0662H15.7666V30.5868H20.4304V0.46623H15.7666V0.477066ZM118.69 0.477066L111.855 14.5399L105.019 0.477066H100.355L108.966 18.1938V30.5868H113.63V18.1938L122.241 0.477066H118.679H118.69ZM58.4911 18.6492H60.2991C65.0401 18.6492 68.8767 15.5048 68.8767 10.8425C68.8767 6.18027 65.029 3.03591 60.2991 3.03591H58.4911V18.6383V18.6492ZM63.0225 0.477066C68.8326 0.477066 73.5521 5.11768 73.5521 10.8317C73.5521 16.5457 68.8326 21.1863 63.0225 21.1863H58.4911V30.5868H53.827V0.46623H63.0225V0.477066ZM82.9347 18.6492H84.7538C89.4947 18.6492 93.3319 15.5048 93.3319 10.8425C93.3319 6.18027 89.4947 3.03591 84.7538 3.03591H82.9347V18.6383V18.6492ZM87.4661 0.477066C93.2878 0.477066 97.9957 5.11768 97.9957 10.8317C97.9957 16.5457 93.2768 21.1863 87.4661 21.1863H82.9347V30.5868H78.271V0.46623H87.4661V0.477066Z" fill="url(#paint0_linear_2317_2100)"/>
<defs>
<linearGradient id="paint0_linear_2317_2100" x1="246.357" y1="45.8108" x2="-2.1096" y2="23.6067" gradientUnits="userSpaceOnUse">
<stop offset="0.32" stop-color="#CFA67E"/>
<stop offset="1" stop-color="#854B20"/>
</linearGradient>
</defs>
</svg>
